# MagicaVoxel @ ephtracy

# material
mtllib kaappi.mtl
usemtl palette

# normals
vn -1 0 0
vn 1 0 0
vn 0 0 1
vn 0 0 -1
vn 0 -1 0
vn 0 1 0

# texcoords
vt 0.865234 0.5
vt 0.994141 0.5

# verts
v -22.5 0 15.5
v -22.5 0 -16.5
v -22.5 42 15.5
v -22.5 42 -16.5
v -21.5 2 13.5
v -21.5 2 -14.5
v -21.5 10 13.5
v -21.5 10 -14.5
v -21.5 12 13.5
v -21.5 12 -14.5
v -21.5 20 13.5
v -21.5 20 -14.5
v -21.5 22 13.5
v -21.5 22 -14.5
v -21.5 30 13.5
v -21.5 30 -14.5
v -21.5 32 13.5
v -21.5 32 -14.5
v -21.5 40 13.5
v -21.5 40 -14.5
v -10.5 0 15.5
v -10.5 0 -16.5
v -10.5 2 13.5
v -10.5 2 -14.5
v -10.5 10 13.5
v -10.5 10 -14.5
v -10.5 12 13.5
v -10.5 12 -14.5
v -10.5 20 13.5
v -10.5 20 -14.5
v -10.5 22 13.5
v -10.5 22 -14.5
v -10.5 30 13.5
v -10.5 30 -14.5
v -10.5 32 13.5
v -10.5 32 -14.5
v -10.5 40 13.5
v -10.5 40 -14.5
v -10.5 42 15.5
v -10.5 42 -16.5
v -22.5 0 15.5
v -22.5 42 15.5
v -10.5 0 15.5
v -10.5 42 15.5
v -21.5 2 -14.5
v -21.5 10 -14.5
v -21.5 12 -14.5
v -21.5 20 -14.5
v -21.5 22 -14.5
v -21.5 30 -14.5
v -21.5 32 -14.5
v -21.5 40 -14.5
v -10.5 2 -14.5
v -10.5 10 -14.5
v -10.5 12 -14.5
v -10.5 20 -14.5
v -10.5 22 -14.5
v -10.5 30 -14.5
v -10.5 32 -14.5
v -10.5 40 -14.5
v -21.5 2 13.5
v -21.5 10 13.5
v -21.5 12 13.5
v -21.5 20 13.5
v -21.5 22 13.5
v -21.5 30 13.5
v -21.5 32 13.5
v -21.5 40 13.5
v -10.5 2 13.5
v -10.5 10 13.5
v -10.5 12 13.5
v -10.5 20 13.5
v -10.5 22 13.5
v -10.5 30 13.5
v -10.5 32 13.5
v -10.5 40 13.5
v -22.5 0 -16.5
v -22.5 42 -16.5
v -10.5 0 -16.5
v -10.5 42 -16.5
v -22.5 0 15.5
v -10.5 0 15.5
v -22.5 0 -16.5
v -10.5 0 -16.5
v -21.5 10 13.5
v -10.5 10 13.5
v -21.5 10 -14.5
v -10.5 10 -14.5
v -21.5 20 13.5
v -10.5 20 13.5
v -21.5 20 -14.5
v -10.5 20 -14.5
v -21.5 30 13.5
v -10.5 30 13.5
v -21.5 30 -14.5
v -10.5 30 -14.5
v -21.5 40 13.5
v -10.5 40 13.5
v -21.5 40 -14.5
v -10.5 40 -14.5
v -21.5 2 13.5
v -10.5 2 13.5
v -21.5 2 -14.5
v -10.5 2 -14.5
v -21.5 12 13.5
v -10.5 12 13.5
v -21.5 12 -14.5
v -10.5 12 -14.5
v -21.5 22 13.5
v -10.5 22 13.5
v -21.5 22 -14.5
v -10.5 22 -14.5
v -21.5 32 13.5
v -10.5 32 13.5
v -21.5 32 -14.5
v -10.5 32 -14.5
v -22.5 42 15.5
v -10.5 42 15.5
v -22.5 42 -16.5
v -10.5 42 -16.5

# faces
f 3/2/1 2/2/1 1/2/1
f 4/2/1 2/2/1 3/2/1
f 5/2/2 6/2/2 7/2/2
f 7/2/2 6/2/2 8/2/2
f 9/2/2 10/2/2 11/2/2
f 11/2/2 10/2/2 12/2/2
f 13/2/2 14/2/2 15/2/2
f 15/2/2 14/2/2 16/2/2
f 17/2/2 18/2/2 19/2/2
f 19/2/2 18/2/2 20/2/2
f 21/2/2 22/2/2 23/2/2
f 23/2/2 22/2/2 24/2/2
f 21/2/2 23/2/2 25/2/2
f 24/2/2 22/2/2 26/2/2
f 21/2/2 25/2/2 27/2/2
f 25/2/2 26/2/2 27/2/2
f 26/2/2 22/2/2 28/2/2
f 27/2/2 26/2/2 28/2/2
f 21/2/2 27/2/2 29/2/2
f 28/2/2 22/2/2 30/2/2
f 21/2/2 29/2/2 31/2/2
f 29/2/2 30/2/2 31/2/2
f 30/2/2 22/2/2 32/2/2
f 31/2/2 30/2/2 32/2/2
f 21/2/2 31/2/2 33/2/2
f 32/2/2 22/2/2 34/2/2
f 21/2/2 33/2/2 35/2/2
f 33/2/2 34/2/2 35/2/2
f 34/2/2 22/2/2 36/2/2
f 35/2/2 34/2/2 36/2/2
f 21/2/2 35/2/2 37/2/2
f 36/2/2 22/2/2 38/2/2
f 21/2/2 37/2/2 39/2/2
f 37/2/2 38/2/2 39/2/2
f 38/2/2 22/2/2 40/2/2
f 39/2/2 38/2/2 40/2/2
f 43/2/3 42/2/3 41/2/3
f 44/2/3 42/2/3 43/2/3
f 53/2/3 46/2/3 45/2/3
f 54/2/3 46/2/3 53/2/3
f 55/2/3 48/2/3 47/2/3
f 56/2/3 48/2/3 55/2/3
f 57/2/3 50/2/3 49/2/3
f 58/2/3 50/2/3 57/2/3
f 59/2/3 52/2/3 51/2/3
f 60/2/3 52/2/3 59/2/3
f 61/2/4 62/2/4 69/2/4
f 69/2/4 62/2/4 70/2/4
f 63/2/4 64/2/4 71/2/4
f 71/2/4 64/2/4 72/2/4
f 65/2/4 66/2/4 73/2/4
f 73/2/4 66/2/4 74/2/4
f 67/2/4 68/2/4 75/2/4
f 75/2/4 68/2/4 76/2/4
f 77/2/4 78/2/4 79/2/4
f 79/2/4 78/2/4 80/2/4
f 83/2/5 82/2/5 81/2/5
f 84/2/5 82/2/5 83/2/5
f 87/2/5 86/2/5 85/2/5
f 88/2/5 86/2/5 87/2/5
f 91/2/5 90/2/5 89/2/5
f 92/2/5 90/2/5 91/2/5
f 95/2/5 94/2/5 93/2/5
f 96/2/5 94/2/5 95/2/5
f 99/2/5 98/2/5 97/2/5
f 100/2/5 98/2/5 99/2/5
f 101/2/6 102/2/6 103/2/6
f 103/2/6 102/2/6 104/2/6
f 105/2/6 106/2/6 107/2/6
f 107/2/6 106/2/6 108/2/6
f 109/2/6 110/2/6 111/2/6
f 111/2/6 110/2/6 112/2/6
f 113/2/6 114/2/6 115/2/6
f 115/2/6 114/2/6 116/2/6
f 117/2/6 118/2/6 119/2/6
f 119/2/6 118/2/6 120/2/6
