# MagicaVoxel @ ephtracy

# material
mtllib ovi.mtl
usemtl palette

# normals
vn -1 0 0
vn 1 0 0
vn 0 0 1
vn 0 0 -1
vn 0 -1 0
vn 0 1 0

# texcoords
vt 0.701172 0.5
vt 0.974609 0.5

# verts
v -10.5 0 -4.5
v -10.5 0 -7.5
v -10.5 45 -4.5
v -10.5 45 -7.5
v -8.5 25 -2.5
v -8.5 25 -4.5
v -8.5 25 -7.5
v -8.5 25 -9.5
v -8.5 26 -2.5
v -8.5 26 -4.5
v -8.5 26 -7.5
v -8.5 26 -9.5
v -8.5 27 -3.5
v -8.5 27 -4.5
v -8.5 27 -7.5
v -8.5 27 -8.5
v -8.5 29 -3.5
v -8.5 29 -4.5
v -8.5 29 -7.5
v -8.5 29 -8.5
v 12.5 2 -4.5
v 12.5 2 -5.5
v 12.5 2 -6.5
v 12.5 2 -7.5
v 12.5 24 -4.5
v 12.5 24 -5.5
v 12.5 24 -6.5
v 12.5 24 -7.5
v 12.5 29 -4.5
v 12.5 29 -5.5
v 12.5 29 -6.5
v 12.5 29 -7.5
v 12.5 43 -4.5
v 12.5 43 -5.5
v 12.5 43 -6.5
v 12.5 43 -7.5
v -8.5 2 -4.5
v -8.5 2 -5.5
v -8.5 2 -6.5
v -8.5 2 -7.5
v -8.5 24 -4.5
v -8.5 24 -5.5
v -8.5 24 -6.5
v -8.5 24 -7.5
v -8.5 29 -4.5
v -8.5 29 -5.5
v -8.5 29 -6.5
v -8.5 29 -7.5
v -8.5 43 -4.5
v -8.5 43 -5.5
v -8.5 43 -6.5
v -8.5 43 -7.5
v -7.5 25 -3.5
v -7.5 25 -4.5
v -7.5 25 -7.5
v -7.5 25 -8.5
v -7.5 26 -3.5
v -7.5 26 -4.5
v -7.5 26 -7.5
v -7.5 26 -8.5
v -6.5 27 -3.5
v -6.5 27 -4.5
v -6.5 27 -7.5
v -6.5 27 -8.5
v -6.5 29 -3.5
v -6.5 29 -4.5
v -6.5 29 -7.5
v -6.5 29 -8.5
v -4.5 25 -2.5
v -4.5 25 -3.5
v -4.5 25 -8.5
v -4.5 25 -9.5
v -4.5 26 -2.5
v -4.5 26 -3.5
v -4.5 26 -8.5
v -4.5 26 -9.5
v 14.5 0 -4.5
v 14.5 0 -7.5
v 14.5 45 -4.5
v 14.5 45 -7.5
v -8.5 25 -2.5
v -8.5 26 -2.5
v -4.5 25 -2.5
v -4.5 26 -2.5
v -8.5 27 -3.5
v -8.5 29 -3.5
v -6.5 27 -3.5
v -6.5 29 -3.5
v -10.5 0 -4.5
v -10.5 45 -4.5
v -8.5 2 -4.5
v -8.5 24 -4.5
v -8.5 25 -4.5
v -8.5 26 -4.5
v -8.5 27 -4.5
v -8.5 29 -4.5
v -8.5 43 -4.5
v -7.5 25 -4.5
v -7.5 26 -4.5
v -6.5 27 -4.5
v -6.5 29 -4.5
v 12.5 2 -4.5
v 12.5 24 -4.5
v 12.5 29 -4.5
v 12.5 43 -4.5
v 14.5 0 -4.5
v 14.5 45 -4.5
v -8.5 2 -5.5
v -8.5 24 -5.5
v -8.5 29 -5.5
v -8.5 43 -5.5
v 12.5 2 -5.5
v 12.5 24 -5.5
v 12.5 29 -5.5
v 12.5 43 -5.5
v -7.5 25 -8.5
v -7.5 26 -8.5
v -4.5 25 -8.5
v -4.5 26 -8.5
v -7.5 25 -3.5
v -7.5 26 -3.5
v -4.5 25 -3.5
v -4.5 26 -3.5
v -8.5 2 -6.5
v -8.5 24 -6.5
v -8.5 29 -6.5
v -8.5 43 -6.5
v 12.5 2 -6.5
v 12.5 24 -6.5
v 12.5 29 -6.5
v 12.5 43 -6.5
v -10.5 0 -7.5
v -10.5 45 -7.5
v -8.5 2 -7.5
v -8.5 24 -7.5
v -8.5 25 -7.5
v -8.5 26 -7.5
v -8.5 27 -7.5
v -8.5 29 -7.5
v -8.5 43 -7.5
v -7.5 25 -7.5
v -7.5 26 -7.5
v -6.5 27 -7.5
v -6.5 29 -7.5
v 12.5 2 -7.5
v 12.5 24 -7.5
v 12.5 29 -7.5
v 12.5 43 -7.5
v 14.5 0 -7.5
v 14.5 45 -7.5
v -8.5 27 -8.5
v -8.5 29 -8.5
v -6.5 27 -8.5
v -6.5 29 -8.5
v -8.5 25 -9.5
v -8.5 26 -9.5
v -4.5 25 -9.5
v -4.5 26 -9.5
v -10.5 0 -4.5
v 14.5 0 -4.5
v -10.5 0 -7.5
v 14.5 0 -7.5
v -8.5 24 -4.5
v 12.5 24 -4.5
v -8.5 24 -5.5
v 12.5 24 -5.5
v -8.5 24 -6.5
v 12.5 24 -6.5
v -8.5 24 -7.5
v 12.5 24 -7.5
v -8.5 25 -2.5
v -4.5 25 -2.5
v -7.5 25 -3.5
v -4.5 25 -3.5
v -8.5 25 -4.5
v -7.5 25 -4.5
v -8.5 25 -7.5
v -7.5 25 -7.5
v -7.5 25 -8.5
v -4.5 25 -8.5
v -8.5 25 -9.5
v -4.5 25 -9.5
v -8.5 27 -3.5
v -6.5 27 -3.5
v -8.5 27 -4.5
v -6.5 27 -4.5
v -8.5 27 -7.5
v -6.5 27 -7.5
v -8.5 27 -8.5
v -6.5 27 -8.5
v -8.5 43 -4.5
v 12.5 43 -4.5
v -8.5 43 -5.5
v 12.5 43 -5.5
v -8.5 43 -6.5
v 12.5 43 -6.5
v -8.5 43 -7.5
v 12.5 43 -7.5
v -8.5 2 -4.5
v 12.5 2 -4.5
v -8.5 2 -5.5
v 12.5 2 -5.5
v -8.5 2 -6.5
v 12.5 2 -6.5
v -8.5 2 -7.5
v 12.5 2 -7.5
v -8.5 26 -2.5
v -4.5 26 -2.5
v -7.5 26 -3.5
v -4.5 26 -3.5
v -8.5 26 -4.5
v -7.5 26 -4.5
v -8.5 26 -7.5
v -7.5 26 -7.5
v -7.5 26 -8.5
v -4.5 26 -8.5
v -8.5 26 -9.5
v -4.5 26 -9.5
v -8.5 29 -3.5
v -6.5 29 -3.5
v -8.5 29 -4.5
v -6.5 29 -4.5
v 12.5 29 -4.5
v -8.5 29 -5.5
v 12.5 29 -5.5
v -8.5 29 -6.5
v 12.5 29 -6.5
v -8.5 29 -7.5
v -6.5 29 -7.5
v 12.5 29 -7.5
v -8.5 29 -8.5
v -6.5 29 -8.5
v -10.5 45 -4.5
v 14.5 45 -4.5
v -10.5 45 -7.5
v 14.5 45 -7.5

# faces
f 3/1/1 2/1/1 1/1/1
f 4/1/1 2/1/1 3/1/1
f 9/2/1 6/2/1 5/2/1
f 10/2/1 6/2/1 9/2/1
f 11/2/1 8/2/1 7/2/1
f 12/2/1 8/2/1 11/2/1
f 17/2/1 14/2/1 13/2/1
f 18/2/1 14/2/1 17/2/1
f 19/2/1 16/2/1 15/2/1
f 20/2/1 16/2/1 19/2/1
f 25/1/1 22/1/1 21/1/1
f 26/1/1 22/1/1 25/1/1
f 27/1/1 24/1/1 23/1/1
f 28/1/1 24/1/1 27/1/1
f 33/1/1 30/1/1 29/1/1
f 34/1/1 30/1/1 33/1/1
f 35/1/1 32/1/1 31/1/1
f 36/1/1 32/1/1 35/1/1
f 37/1/2 38/1/2 41/1/2
f 41/1/2 38/1/2 42/1/2
f 39/1/2 40/1/2 43/1/2
f 43/1/2 40/1/2 44/1/2
f 45/1/2 46/1/2 49/1/2
f 49/1/2 46/1/2 50/1/2
f 47/1/2 48/1/2 51/1/2
f 51/1/2 48/1/2 52/1/2
f 53/2/2 54/2/2 57/2/2
f 57/2/2 54/2/2 58/2/2
f 55/2/2 56/2/2 59/2/2
f 59/2/2 56/2/2 60/2/2
f 61/2/2 62/2/2 65/2/2
f 65/2/2 62/2/2 66/2/2
f 63/2/2 64/2/2 67/2/2
f 67/2/2 64/2/2 68/2/2
f 69/2/2 70/2/2 73/2/2
f 73/2/2 70/2/2 74/2/2
f 71/2/2 72/2/2 75/2/2
f 75/2/2 72/2/2 76/2/2
f 77/1/2 78/1/2 79/1/2
f 79/1/2 78/1/2 80/1/2
f 83/2/3 82/2/3 81/2/3
f 84/2/3 82/2/3 83/2/3
f 87/2/3 86/2/3 85/2/3
f 88/2/3 86/2/3 87/2/3
f 91/1/3 90/1/3 89/1/3
f 92/1/3 90/1/3 91/1/3
f 93/1/3 90/1/3 92/1/3
f 94/1/3 90/1/3 93/1/3
f 95/1/3 90/1/3 94/1/3
f 96/1/3 90/1/3 95/1/3
f 97/1/3 90/1/3 96/1/3
f 98/1/3 93/1/3 92/1/3
f 99/1/3 95/1/3 94/1/3
f 100/1/3 95/1/3 99/1/3
f 100/1/3 99/1/3 98/1/3
f 102/1/3 91/1/3 89/1/3
f 103/1/3 101/1/3 100/1/3
f 103/1/3 98/1/3 92/1/3
f 103/1/3 100/1/3 98/1/3
f 104/1/3 101/1/3 103/1/3
f 105/1/3 90/1/3 97/1/3
f 106/1/3 102/1/3 89/1/3
f 106/1/3 105/1/3 104/1/3
f 106/1/3 104/1/3 103/1/3
f 106/1/3 103/1/3 102/1/3
f 107/1/3 90/1/3 105/1/3
f 107/1/3 105/1/3 106/1/3
f 112/1/3 109/1/3 108/1/3
f 113/1/3 109/1/3 112/1/3
f 114/1/3 111/1/3 110/1/3
f 115/1/3 111/1/3 114/1/3
f 118/2/3 117/2/3 116/2/3
f 119/2/3 117/2/3 118/2/3
f 120/2/4 121/2/4 122/2/4
f 122/2/4 121/2/4 123/2/4
f 124/1/4 125/1/4 128/1/4
f 128/1/4 125/1/4 129/1/4
f 126/1/4 127/1/4 130/1/4
f 130/1/4 127/1/4 131/1/4
f 132/1/4 133/1/4 134/1/4
f 134/1/4 133/1/4 135/1/4
f 135/1/4 133/1/4 136/1/4
f 136/1/4 133/1/4 137/1/4
f 137/1/4 133/1/4 138/1/4
f 138/1/4 133/1/4 139/1/4
f 139/1/4 133/1/4 140/1/4
f 135/1/4 136/1/4 141/1/4
f 137/1/4 138/1/4 142/1/4
f 142/1/4 138/1/4 143/1/4
f 141/1/4 142/1/4 143/1/4
f 132/1/4 134/1/4 145/1/4
f 143/1/4 144/1/4 146/1/4
f 135/1/4 141/1/4 146/1/4
f 141/1/4 143/1/4 146/1/4
f 146/1/4 144/1/4 147/1/4
f 140/1/4 133/1/4 148/1/4
f 132/1/4 145/1/4 149/1/4
f 147/1/4 148/1/4 149/1/4
f 146/1/4 147/1/4 149/1/4
f 145/1/4 146/1/4 149/1/4
f 148/1/4 133/1/4 150/1/4
f 149/1/4 148/1/4 150/1/4
f 151/2/4 152/2/4 153/2/4
f 153/2/4 152/2/4 154/2/4
f 155/2/4 156/2/4 157/2/4
f 157/2/4 156/2/4 158/2/4
f 161/1/5 160/1/5 159/1/5
f 162/1/5 160/1/5 161/1/5
f 165/1/5 164/1/5 163/1/5
f 166/1/5 164/1/5 165/1/5
f 169/1/5 168/1/5 167/1/5
f 170/1/5 168/1/5 169/1/5
f 173/2/5 172/2/5 171/2/5
f 174/2/5 172/2/5 173/2/5
f 175/2/5 173/2/5 171/2/5
f 176/2/5 173/2/5 175/2/5
f 179/2/5 178/2/5 177/2/5
f 181/2/5 179/2/5 177/2/5
f 181/2/5 180/2/5 179/2/5
f 182/2/5 180/2/5 181/2/5
f 185/2/5 184/2/5 183/2/5
f 186/2/5 184/2/5 185/2/5
f 189/2/5 188/2/5 187/2/5
f 190/2/5 188/2/5 189/2/5
f 193/1/5 192/1/5 191/1/5
f 194/1/5 192/1/5 193/1/5
f 197/1/5 196/1/5 195/1/5
f 198/1/5 196/1/5 197/1/5
f 199/1/6 200/1/6 201/1/6
f 201/1/6 200/1/6 202/1/6
f 203/1/6 204/1/6 205/1/6
f 205/1/6 204/1/6 206/1/6
f 207/2/6 208/2/6 209/2/6
f 209/2/6 208/2/6 210/2/6
f 207/2/6 209/2/6 211/2/6
f 211/2/6 209/2/6 212/2/6
f 213/2/6 214/2/6 215/2/6
f 213/2/6 215/2/6 217/2/6
f 215/2/6 216/2/6 217/2/6
f 217/2/6 216/2/6 218/2/6
f 219/2/6 220/2/6 221/2/6
f 221/2/6 220/2/6 222/2/6
f 221/1/6 222/1/6 224/1/6
f 222/1/6 223/1/6 224/1/6
f 224/1/6 223/1/6 225/1/6
f 226/1/6 227/1/6 228/1/6
f 228/1/6 227/1/6 229/1/6
f 229/1/6 227/1/6 230/1/6
f 228/2/6 229/2/6 231/2/6
f 231/2/6 229/2/6 232/2/6
f 233/1/6 234/1/6 235/1/6
f 235/1/6 234/1/6 236/1/6
